# xmcd
#
# Track frame offsets:
#	150
#	20076
#	37215
#	60227
#	84243
#	108960
#	133310
#	150775
#	171514
#
# Disc length: 2575 seconds
#
# Revision: 1
# Processed by: cddbd v1.5.2PL0 Copyright (c) Steve Scherf et al.
# Submitted via: audiograbber 1.83.01
#
DISCID=6d0a0d09
DTITLE=Silverbell - Whitewashed Heart
DYEAR=2012
DGENRE=Country
TTITLE0=drive
TTITLE1=coming down
TTITLE2=why
TTITLE3=the station
TTITLE4=the one before
TTITLE5=disappear
TTITLE6=shame
TTITLE7=why it's hard to love me
TTITLE8=go on and lie
EXTD=
EXTT0=
EXTT1=
EXTT2=
EXTT3=
EXTT4=
EXTT5=
EXTT6=
EXTT7=
EXTT8=
PLAYORDER=
